<svg width="24" height="24" viewBox="0 0 24 24" fill="none" xmlns="http://www.w3.org/2000/svg">
<path d="M18.2799 7.01984C18.2799 8.77984 16.8599 10.1998 15.0999 10.1998C13.9299 10.1998 12.9099 9.56984 12.3699 8.63984C12.0799 8.15984 11.9199 7.60984 11.9199 7.01984C11.9299 5.24984 13.3399 3.83984 15.0999 3.83984C16.8599 3.83984 18.2799 5.25984 18.2799 7.01984Z" fill="#8C8C8C"/>
<path d="M15.8002 19.7804V20.1604H8.2002V17.9004C8.2002 16.1204 8.9002 14.4804 10.0402 13.2804C10.0802 13.2304 10.1202 13.1904 10.1602 13.1504C10.1902 13.1504 10.2302 13.1504 10.2602 13.1604C13.4102 13.7104 15.8002 16.4704 15.8002 19.7804Z" fill="#8C8C8C"/>
<path d="M22.0004 17.8999V20.1599H16.8004V19.7799C16.8004 16.2799 14.4604 13.3099 11.2604 12.3699C11.2304 12.3499 11.1904 12.3399 11.1504 12.3299C11.2504 12.2599 11.3504 12.1899 11.4604 12.1299C12.4704 11.5199 13.6504 11.1699 14.9204 11.1699H15.2704C18.9904 11.1699 22.0004 14.1899 22.0004 17.8999Z" fill="#8C8C8C"/>
<path d="M11.3795 9.59016C11.3795 10.6502 10.8595 11.5802 10.0695 12.1702H10.0595C9.53953 12.5502 8.89953 12.7702 8.19953 12.7702C7.63953 12.7702 7.11953 12.6302 6.65953 12.3802C5.67953 11.8302 5.01953 10.7902 5.01953 9.59016C5.01953 7.83016 6.43953 6.41016 8.19953 6.41016C9.95953 6.41016 11.3795 7.83016 11.3795 9.59016Z" fill="#8C8C8C"/>
<path d="M10.26 13.1604C10.19 13.2104 10.12 13.2504 10.04 13.2804C10.08 13.2304 10.12 13.1904 10.16 13.1504C10.19 13.1504 10.23 13.1504 10.26 13.1604Z" fill="#8C8C8C"/>
<path d="M11.4604 12.1406C11.4004 12.2306 11.3304 12.3106 11.2604 12.3806C11.2304 12.3606 11.1904 12.3506 11.1504 12.3406C11.2504 12.2706 11.3504 12.2006 11.4604 12.1406Z" fill="#8C8C8C"/>
<path d="M15.8 19.7804V20.1604H2V19.7804C2 16.8104 3.92 14.2904 6.6 13.4004C7.09 13.6104 7.63 13.7204 8.2 13.7204C8.86 13.7204 9.49 13.5604 10.04 13.2804C10.08 13.2304 10.12 13.1904 10.16 13.1504C10.19 13.1504 10.23 13.1504 10.26 13.1604C13.41 13.7104 15.8 16.4704 15.8 19.7804Z" fill="#8C8C8C"/>
<path d="M15.8 19.7804V20.1604H2V19.7804C2 16.8104 3.92 14.2904 6.6 13.4004C7.09 13.6104 7.63 13.7204 8.2 13.7204C8.86 13.7204 9.49 13.5604 10.04 13.2804C10.08 13.2304 10.12 13.1904 10.16 13.1504C10.19 13.1504 10.23 13.1504 10.26 13.1604C13.41 13.7104 15.8 16.4704 15.8 19.7804Z" fill="#8C8C8C"/>
</svg>
