<svg width="21" height="26" viewBox="0 0 21 26" fill="none" xmlns="http://www.w3.org/2000/svg">
<path fill-rule="evenodd" clip-rule="evenodd" d="M20.4883 17.2373L18.8508 9.5498C18.8508 5.7623 16.0883 2.6248 12.4258 1.9748V1.8998C12.4258 1.0998 11.8008 0.487305 10.9883 0.487305C10.1758 0.487305 9.58828 1.0998 9.58828 1.8998V1.9748C5.93828 2.6248 3.17578 5.7623 3.17578 9.5498L1.53828 17.2373C1.22578 17.2373 0.988281 17.4623 0.988281 17.7373V20.4873C0.988281 20.7998 1.22578 20.9873 1.53828 20.9873H20.4883C20.8008 20.9873 21.0008 20.7998 21.0008 20.4873V17.7373C21.0383 17.4748 20.8008 17.2373 20.4883 17.2373Z" fill="#E0E1E0"/>
<path fill-rule="evenodd" clip-rule="evenodd" d="M10.9254 25.4996C12.6004 25.4996 13.9629 23.9746 13.9629 22.0996H7.90039C7.90039 23.9746 9.26289 25.4996 10.9379 25.4996H10.9254Z" fill="#E0E1E0"/>
</svg>
