<svg width="30" height="30" viewBox="0 0 30 30" fill="none" xmlns="http://www.w3.org/2000/svg">
<path d="M23.125 11.2383H6.875C6.52982 11.2383 6.25 11.5181 6.25 11.8633V25.6133C6.25 25.9585 6.52982 26.2383 6.875 26.2383H23.125C23.4702 26.2383 23.75 25.9585 23.75 25.6133V11.8633C23.75 11.5181 23.4702 11.2383 23.125 11.2383Z" stroke="#8C8C8C" stroke-width="2" stroke-miterlimit="10"/>
<path d="M10.55 11.2367V8.54922C10.55 5.89922 12.5125 3.76172 14.925 3.76172C16.1375 3.76172 17.225 4.28672 18.0125 5.16172" stroke="#8C8C8C" stroke-width="2" stroke-linecap="round" stroke-linejoin="round"/>
<path d="M14.95 20.2629C15.7923 20.2629 16.475 19.5801 16.475 18.7379C16.475 17.8957 15.7923 17.2129 14.95 17.2129C14.1078 17.2129 13.425 17.8957 13.425 18.7379C13.425 19.5801 14.1078 20.2629 14.95 20.2629Z" fill="#8C8C8C"/>
</svg>
