<svg width="30" height="30" viewBox="0 0 30 30" fill="none" xmlns="http://www.w3.org/2000/svg">
<path d="M23.1125 11.2383H6.86249C6.51731 11.2383 6.23749 11.5181 6.23749 11.8633V25.6133C6.23749 25.9585 6.51731 26.2383 6.86249 26.2383H23.1125C23.4577 26.2383 23.7375 25.9585 23.7375 25.6133V11.8633C23.7375 11.5181 23.4577 11.2383 23.1125 11.2383Z" stroke="#8C8C8C" stroke-width="2" stroke-miterlimit="10"/>
<path d="M19.2875 8.54922V11.2367H10.5375V8.54922C10.5375 5.89922 12.5 3.76172 14.9125 3.76172C16.125 3.76172 17.2125 4.28672 18 5.16172C18.8 6.02422 19.2875 7.21172 19.2875 8.54922Z" stroke="#8C8C8C" stroke-width="2" stroke-miterlimit="10"/>
<path d="M14.9375 20.2629C15.7797 20.2629 16.4625 19.5801 16.4625 18.7379C16.4625 17.8957 15.7797 17.2129 14.9375 17.2129C14.0953 17.2129 13.4125 17.8957 13.4125 18.7379C13.4125 19.5801 14.0953 20.2629 14.9375 20.2629Z" fill="#8C8C8C"/>
</svg>
