<svg width="25" height="24" viewBox="0 0 25 24" fill="none" xmlns="http://www.w3.org/2000/svg">
<path id="Vector" d="M17.2064 15.0943H16.1223L15.7381 14.7238C17.0829 13.1595 17.8925 11.1286 17.8925 8.91938C17.8925 3.99314 13.8993 0 8.97309 0C4.04685 0 0.0537109 3.99314 0.0537109 8.91938C0.0537109 13.8456 4.04685 17.8388 8.97309 17.8388C11.1824 17.8388 13.2132 17.0292 14.7776 15.6844L15.1481 16.0686V17.1527L22.0091 24L24.0537 21.9554L17.2064 15.0943ZM8.97309 15.0943C5.55628 15.0943 2.79814 12.3362 2.79814 8.91938C2.79814 5.50257 5.55628 2.74443 8.97309 2.74443C12.3899 2.74443 15.1481 5.50257 15.1481 8.91938C15.1481 12.3362 12.3899 15.0943 8.97309 15.0943Z" fill="#DCDCDC"/>
</svg>
