<svg width="24" height="24" viewBox="0 0 24 24" fill="none" xmlns="http://www.w3.org/2000/svg">
<g id="&#236;&#154;&#176;&#236;&#163;&#188;&#236;&#160;&#149;&#234;&#177;&#176;&#236;&#158;&#165; &#236;&#149;&#132;&#236;&#157;&#180;&#236;&#189;&#152;-01 1">
<g id="Group 184">
<path id="Vector" fill-rule="evenodd" clip-rule="evenodd" d="M19.5902 15.39L18.2802 9.23999C18.2802 6.20999 16.0702 3.69999 13.1402 3.17999V3.11999C13.1402 2.47999 12.6402 1.98999 11.9902 1.98999C11.3402 1.98999 10.8702 2.47999 10.8702 3.11999V3.17999C7.95023 3.69999 5.74023 6.20999 5.74023 9.23999L4.43023 15.39C4.18023 15.39 3.99023 15.57 3.99023 15.79V17.99C3.99023 18.24 4.18023 18.39 4.43023 18.39H19.5902C19.8402 18.39 20.0002 18.24 20.0002 17.99V15.79C20.0302 15.58 19.8402 15.39 19.5902 15.39Z" fill="#E0E1E0"/>
<path id="Vector_2" fill-rule="evenodd" clip-rule="evenodd" d="M11.9395 22C13.2795 22 14.3695 20.78 14.3695 19.28H9.51953C9.51953 20.78 10.6095 22 11.9495 22H11.9395Z" fill="#E0E1E0"/>
</g>
</g>
</svg>
