<svg width="21" height="26" viewBox="0 0 20 26" fill="none" xmlns="http://www.w3.org/2000/svg">
<path fill-rule="evenodd" clip-rule="evenodd" d="M20 17.7375V20.4875C20 20.8 19.8 20.9875 19.4875 20.9875H0.55C0.2375 20.9875 0 20.8 0 20.4875V17.7375C0 17.475 0.2375 17.2375 0.55 17.2375L2.175 9.5625C2.175 5.775 4.9375 2.6375 8.6 1.9875V1.9125C8.6 1.1125 9.225 0.5 10 0.5C10.775 0.5 11.4375 1.1125 11.4375 1.9125V1.9875C11.8375 2.0625 12.2125 2.1625 12.5875 2.2875C11.85 3.1625 11.4375 4.275 11.4375 5.425C11.4375 8.1375 13.6375 10.3375 16.35 10.3375C16.9 10.3375 17.45 10.2375 17.9625 10.05L19.4875 17.2375C19.8 17.2375 20.0375 17.475 20 17.7375Z" fill="#E0E1E0"/>
<path fill-rule="evenodd" clip-rule="evenodd" d="M6.8877 22.1001V22.2376C6.9502 24.0501 8.28769 25.5001 9.92519 25.5001C11.5627 25.5001 12.8877 24.0501 12.9502 22.2376V22.1001H6.8877Z" fill="#E0E1E0"/>
<path fill-rule="evenodd" clip-rule="evenodd" d="M20 5.4249C20 6.4249 19.6125 7.3249 18.9625 7.9749C18.7125 8.2499 18.4125 8.4749 18.075 8.6499C17.9875 8.6999 17.9 8.7374 17.8125 8.7749C17.3625 8.9749 16.875 9.0874 16.35 9.0874C14.325 9.0874 12.6875 7.4499 12.6875 5.4249C12.6875 4.3999 13.1125 3.4749 13.8 2.8124C13.85 2.7624 13.9 2.7124 13.9625 2.6624C14.2625 2.4124 14.6 2.1999 14.9625 2.0499C15.3875 1.8749 15.8625 1.7749 16.35 1.7749C18.3625 1.7749 20 3.4124 20 5.4249Z" fill="#F37021"/>
</svg>
