<svg width="24" height="25" viewBox="0 0 24 25" fill="none" xmlns="http://www.w3.org/2000/svg">
<path d="M12 7.07031C13.1046 7.07031 14 6.17488 14 5.07031C14 3.96574 13.1046 3.07031 12 3.07031C10.8954 3.07031 10 3.96574 10 5.07031C10 6.17488 10.8954 7.07031 12 7.07031Z" fill="#DCDCDC"/>
<path d="M12 14.0996C13.1046 14.0996 14 13.2042 14 12.0996C14 10.995 13.1046 10.0996 12 10.0996C10.8954 10.0996 10 10.995 10 12.0996C10 13.2042 10.8954 14.0996 12 14.0996Z" fill="#DCDCDC"/>
<path d="M12 21.1289C13.1046 21.1289 14 20.2335 14 19.1289C14 18.0243 13.1046 17.1289 12 17.1289C10.8954 17.1289 10 18.0243 10 19.1289C10 20.2335 10.8954 21.1289 12 21.1289Z" fill="#DCDCDC"/>
</svg>
