<svg width="420" height="292" viewBox="0 0 420 292" fill="none" xmlns="http://www.w3.org/2000/svg">
<path d="M315.67 194.66C312.09 202.21 307.71 209.31 302.63 215.85C281.76 242.71 249.15 260.03 212.57 260.03C200.55 260.03 188.97 258.16 178.08 254.7C170.1 252.16 162.49 248.77 155.37 244.62C139.05 246.8 123.32 247.94 108.52 247.99C108.86 248.34 109.2 248.69 109.55 249.03C113.87 253.35 118.43 257.38 123.2 261.08C133.19 268.86 144.12 275.28 155.86 280.24C173.83 287.84 192.92 291.7 212.58 291.7C232.24 291.7 251.32 287.85 269.29 280.24C286.64 272.9 302.22 262.4 315.6 249.02C328.97 235.65 339.48 220.07 346.82 202.71C348.6 198.51 350.17 194.25 351.53 189.94C353.51 183.69 355.06 177.32 356.16 170.86C343.93 179.21 330.34 187.19 315.68 194.66H315.67Z" fill="#F37021"/>
<path d="M419.79 85.4602C419.79 94.3202 417.46 105.24 410.21 117.73C402.3 131.36 389.63 145.18 372.54 158.8C372.07 159.17 371.61 159.54 371.13 159.91C366.4 163.62 361.4 167.28 356.15 170.86C343.92 179.21 330.33 187.19 315.67 194.66C308.66 198.23 301.41 201.68 293.95 204.99C276.35 212.81 257.58 219.88 238.08 225.98C218.16 232.21 198.31 237.18 179.02 240.8C171.03 242.3 163.13 243.57 155.37 244.61C139.05 246.79 123.32 247.93 108.52 247.98C108.17 247.98 107.82 247.98 107.47 247.98C101.45 247.98 95.59 247.8 89.9 247.43C89.7 247.42 89.5 247.4 89.3 247.39C67.5 245.93 49.21 241.8 34.94 235.1C13.63 225.1 5.45001 211.13 2.33001 201.17C-0.789986 191.21 -2.01999 175.06 9.79001 154.7C17.7 141.07 30.37 127.25 47.46 113.63C51.04 110.78 54.78 107.95 58.68 105.17C64.38 101.1 70.4 97.1102 76.72 93.2102C71.07 107.72 67.83 122.91 67.05 138.51C62.03 142.52 57.49 146.53 53.46 150.5C37.23 166.47 29.38 181.56 32.55 191.7C35.47 201.04 48.45 208.5 67.99 212.65C73.01 213.72 78.47 214.57 84.3 215.17C86.61 215.41 88.97 215.61 91.39 215.77C101.2 216.43 111.62 216.46 122.54 215.9C127.96 215.62 133.5 215.2 139.13 214.63C167.17 211.8 197.71 205.39 228.6 195.73C259.12 186.18 287.55 174.21 312.01 160.76C316.97 158.03 321.77 155.24 326.39 152.4C336.01 146.48 344.86 140.32 352.78 134.01C354.37 132.74 355.91 131.48 357.4 130.21C361.85 126.44 365.88 122.67 369.43 118.96C383.67 104.09 390.4 90.2202 387.42 80.7002C385.43 74.3602 378.81 68.8802 368.63 64.7202C362.25 62.1102 354.47 60.0202 345.58 58.5602C339.66 49.5602 332.81 41.1602 325.09 33.4402C321.95 30.3002 318.7 27.3102 315.35 24.4702C320.59 24.5202 325.71 24.7102 330.69 25.0402C352.49 26.5002 370.78 30.6302 385.05 37.3302C406.35 47.3302 414.54 61.3002 417.66 71.2602C418.86 75.1002 419.79 79.8702 419.79 85.4502V85.4602Z" fill="#F1F0F0"/>
<path d="M344.4 123.5C338.81 127.96 332.72 132.34 326.2 136.61C324.12 111.13 313.62 87.9901 297.49 70.0001C293.44 65.4801 289.04 61.2901 284.33 57.4601C269.36 45.3001 251.26 36.8601 231.45 33.5401C225.31 32.5101 219 31.9801 212.56 31.9801C181.61 31.9801 153.5 44.3801 132.93 64.4601C118.99 78.0801 108.51 95.2301 102.97 114.46C101.3 120.23 100.08 126.18 99.3501 132.28C98.8101 136.78 98.5301 141.36 98.5301 146C98.5301 166.66 104.05 186.05 113.7 202.78C111.66 202.83 109.64 202.85 107.64 202.85C102.36 202.85 97.2001 202.69 92.3001 202.36C86.8201 202 81.9001 201.44 77.5001 200.74C71.7001 186.45 68.2501 171.47 67.2101 156.07C66.9801 152.74 66.8701 149.38 66.8701 146.01C66.8701 143.51 66.9301 141.02 67.0601 138.55C67.8401 122.94 71.0801 107.75 76.7301 93.2501C77.2401 91.9301 77.7801 90.6101 78.3301 89.3001C80.9201 83.1601 83.9201 77.2501 87.2901 71.5701C93.4501 61.2001 100.9 51.6401 109.55 42.9901C122.92 29.6201 138.5 19.1101 155.85 11.7701C173.82 4.17006 192.91 0.310059 212.57 0.310059C232.23 0.310059 251.31 4.16006 269.28 11.7701C270.44 12.2601 271.58 12.7601 272.72 13.2801C280.09 16.6201 287.12 20.5501 293.79 25.0301C301.57 30.2701 308.86 36.2701 315.58 42.9901C319.89 47.3001 323.91 51.8501 327.61 56.6101C331.2 61.2201 334.5 66.0301 337.51 71.0301C341.02 76.8701 344.12 82.9701 346.8 89.3001C350.26 97.4901 352.95 105.9 354.84 114.5C351.8 117.36 348.33 120.37 344.39 123.52L344.4 123.5Z" fill="#F37021"/>
<path d="M124.03 125.43C124.03 125.43 172.67 64.2001 273.6 74.9701C273.6 74.9701 231.51 41.0601 184.41 56.4901C131.18 73.9301 124.03 125.43 124.03 125.43Z" fill="#F1F0F0"/>
</svg>
