<svg width="30" height="30" viewBox="0 0 30 30" fill="none" xmlns="http://www.w3.org/2000/svg">
<path d="M16.5843 21.4923L16.5831 21.4916C16.0976 21.1855 15.5156 21.0656 14.9936 21.0656C14.4715 21.0656 13.8895 21.1855 13.404 21.4916L13.4029 21.4923L5.9873 26.1814V3.75C5.9873 3.61478 6.10209 3.5 6.2373 3.5H23.7373H23.7498C23.885 3.5 23.9998 3.61478 23.9998 3.75V26.1814L16.5843 21.4923ZM23.997 26.7882C23.997 26.7881 23.9971 26.7871 23.9975 26.7851C23.9973 26.7872 23.9971 26.7882 23.997 26.7882ZM24.5101 26.4996C24.5101 26.4997 24.5087 26.4992 24.5059 26.498C24.5086 26.4989 24.5101 26.4996 24.5101 26.4996Z" stroke="#FF6F00" stroke-width="2"/>
</svg>
